<mxfile host="app.diagrams.net" modified="2024-03-17T15:31:24.784Z" agent="Mozilla/5.0 (Windows NT 10.0; Win64; x64) AppleWebKit/537.36 (KHTML, like Gecko) Chrome/120.0.0.0 YaBrowser/24.1.0.0 Safari/537.36" etag="eHvuXW063hCxt8IHPONM" version="24.0.5" type="device">
  <diagram name="Страница — 1" id="Sv1Gt_eCBrXrc9OYBtoj">
    <mxGraphModel dx="956" dy="555" grid="0" gridSize="10" guides="1" tooltips="1" connect="1" arrows="1" fold="1" page="1" pageScale="1" pageWidth="827" pageHeight="1169" math="0" shadow="0">
      <root>
        <mxCell id="0" />
        <mxCell id="1" parent="0" />
        <mxCell id="g-QfgfsSfjLuhqNF6Mok-26" value="Tree" style="swimlane;fontStyle=1;align=center;verticalAlign=top;childLayout=stackLayout;horizontal=1;startSize=26;horizontalStack=0;resizeParent=1;resizeParentMax=0;resizeLast=0;collapsible=1;marginBottom=0;whiteSpace=wrap;html=1;" vertex="1" parent="1">
          <mxGeometry x="430" y="104" width="176.5" height="268" as="geometry">
            <mxRectangle x="101" y="384" width="52" height="26" as="alternateBounds" />
          </mxGeometry>
        </mxCell>
        <mxCell id="g-QfgfsSfjLuhqNF6Mok-27" value="- value: float" style="text;strokeColor=none;fillColor=none;align=left;verticalAlign=top;spacingLeft=4;spacingRight=4;overflow=hidden;rotatable=0;points=[[0,0.5],[1,0.5]];portConstraint=eastwest;whiteSpace=wrap;html=1;" vertex="1" parent="g-QfgfsSfjLuhqNF6Mok-26">
          <mxGeometry y="26" width="176.5" height="26" as="geometry" />
        </mxCell>
        <mxCell id="g-QfgfsSfjLuhqNF6Mok-28" value="- left: Tree*" style="text;strokeColor=none;fillColor=none;align=left;verticalAlign=top;spacingLeft=4;spacingRight=4;overflow=hidden;rotatable=0;points=[[0,0.5],[1,0.5]];portConstraint=eastwest;whiteSpace=wrap;html=1;" vertex="1" parent="g-QfgfsSfjLuhqNF6Mok-26">
          <mxGeometry y="52" width="176.5" height="26" as="geometry" />
        </mxCell>
        <mxCell id="g-QfgfsSfjLuhqNF6Mok-29" value="- right: Tree*" style="text;strokeColor=none;fillColor=none;align=left;verticalAlign=top;spacingLeft=4;spacingRight=4;overflow=hidden;rotatable=0;points=[[0,0.5],[1,0.5]];portConstraint=eastwest;whiteSpace=wrap;html=1;" vertex="1" parent="g-QfgfsSfjLuhqNF6Mok-26">
          <mxGeometry y="78" width="176.5" height="26" as="geometry" />
        </mxCell>
        <mxCell id="g-QfgfsSfjLuhqNF6Mok-30" value="" style="line;strokeWidth=1;fillColor=none;align=left;verticalAlign=middle;spacingTop=-1;spacingLeft=3;spacingRight=3;rotatable=0;labelPosition=right;points=[];portConstraint=eastwest;strokeColor=inherit;" vertex="1" parent="g-QfgfsSfjLuhqNF6Mok-26">
          <mxGeometry y="104" width="176.5" height="8" as="geometry" />
        </mxCell>
        <mxCell id="g-QfgfsSfjLuhqNF6Mok-31" value="+ Tree()" style="text;strokeColor=none;fillColor=none;align=left;verticalAlign=top;spacingLeft=4;spacingRight=4;overflow=hidden;rotatable=0;points=[[0,0.5],[1,0.5]];portConstraint=eastwest;whiteSpace=wrap;html=1;" vertex="1" parent="g-QfgfsSfjLuhqNF6Mok-26">
          <mxGeometry y="112" width="176.5" height="26" as="geometry" />
        </mxCell>
        <mxCell id="g-QfgfsSfjLuhqNF6Mok-52" value="+ Tree(float value)" style="text;strokeColor=none;fillColor=none;align=left;verticalAlign=top;spacingLeft=4;spacingRight=4;overflow=hidden;rotatable=0;points=[[0,0.5],[1,0.5]];portConstraint=eastwest;whiteSpace=wrap;html=1;" vertex="1" parent="g-QfgfsSfjLuhqNF6Mok-26">
          <mxGeometry y="138" width="176.5" height="26" as="geometry" />
        </mxCell>
        <mxCell id="g-QfgfsSfjLuhqNF6Mok-32" value="+ ~Tree()" style="text;strokeColor=none;fillColor=none;align=left;verticalAlign=top;spacingLeft=4;spacingRight=4;overflow=hidden;rotatable=0;points=[[0,0.5],[1,0.5]];portConstraint=eastwest;whiteSpace=wrap;html=1;" vertex="1" parent="g-QfgfsSfjLuhqNF6Mok-26">
          <mxGeometry y="164" width="176.5" height="26" as="geometry" />
        </mxCell>
        <mxCell id="g-QfgfsSfjLuhqNF6Mok-34" value="+ sum(): float" style="text;strokeColor=none;fillColor=none;align=left;verticalAlign=top;spacingLeft=4;spacingRight=4;overflow=hidden;rotatable=0;points=[[0,0.5],[1,0.5]];portConstraint=eastwest;whiteSpace=wrap;html=1;" vertex="1" parent="g-QfgfsSfjLuhqNF6Mok-26">
          <mxGeometry y="190" width="176.5" height="26" as="geometry" />
        </mxCell>
        <mxCell id="g-QfgfsSfjLuhqNF6Mok-37" value="+ add(float value): void" style="text;strokeColor=none;fillColor=none;align=left;verticalAlign=top;spacingLeft=4;spacingRight=4;overflow=hidden;rotatable=0;points=[[0,0.5],[1,0.5]];portConstraint=eastwest;whiteSpace=wrap;html=1;" vertex="1" parent="g-QfgfsSfjLuhqNF6Mok-26">
          <mxGeometry y="216" width="176.5" height="26" as="geometry" />
        </mxCell>
        <mxCell id="g-QfgfsSfjLuhqNF6Mok-53" value="+ print(std::ostream &amp;amp;os): void" style="text;strokeColor=none;fillColor=none;align=left;verticalAlign=top;spacingLeft=4;spacingRight=4;overflow=hidden;rotatable=0;points=[[0,0.5],[1,0.5]];portConstraint=eastwest;whiteSpace=wrap;html=1;" vertex="1" parent="g-QfgfsSfjLuhqNF6Mok-26">
          <mxGeometry y="242" width="176.5" height="26" as="geometry" />
        </mxCell>
        <mxCell id="g-QfgfsSfjLuhqNF6Mok-39" value="" style="edgeStyle=orthogonalEdgeStyle;rounded=0;orthogonalLoop=1;jettySize=auto;html=1;" edge="1" parent="1" source="g-QfgfsSfjLuhqNF6Mok-40" target="g-QfgfsSfjLuhqNF6Mok-42">
          <mxGeometry relative="1" as="geometry" />
        </mxCell>
        <mxCell id="g-QfgfsSfjLuhqNF6Mok-40" value="&lt;font style=&quot;font-size: 10px;&quot;&gt;main&lt;/font&gt;" style="ellipse;whiteSpace=wrap;html=1;" vertex="1" parent="1">
          <mxGeometry x="659" y="110" width="75" height="30" as="geometry" />
        </mxCell>
        <mxCell id="g-QfgfsSfjLuhqNF6Mok-41" value="" style="edgeStyle=orthogonalEdgeStyle;rounded=0;orthogonalLoop=1;jettySize=auto;html=1;" edge="1" parent="1" source="g-QfgfsSfjLuhqNF6Mok-42" target="g-QfgfsSfjLuhqNF6Mok-44">
          <mxGeometry relative="1" as="geometry" />
        </mxCell>
        <mxCell id="g-QfgfsSfjLuhqNF6Mok-42" value="&lt;font style=&quot;font-size: 10px;&quot;&gt;std::ostream &amp;amp;ostream = std::cout&lt;/font&gt;" style="whiteSpace=wrap;html=1;" vertex="1" parent="1">
          <mxGeometry x="619.5" y="154" width="154" height="20" as="geometry" />
        </mxCell>
        <mxCell id="g-QfgfsSfjLuhqNF6Mok-43" value="" style="edgeStyle=orthogonalEdgeStyle;rounded=0;orthogonalLoop=1;jettySize=auto;html=1;" edge="1" parent="1" source="g-QfgfsSfjLuhqNF6Mok-44" target="g-QfgfsSfjLuhqNF6Mok-46">
          <mxGeometry relative="1" as="geometry" />
        </mxCell>
        <mxCell id="g-QfgfsSfjLuhqNF6Mok-44" value="&lt;font style=&quot;font-size: 10px;&quot;&gt;std::istream &amp;amp;istream = std::cin&lt;/font&gt;" style="whiteSpace=wrap;html=1;" vertex="1" parent="1">
          <mxGeometry x="619.5" y="188" width="154" height="20" as="geometry" />
        </mxCell>
        <mxCell id="g-QfgfsSfjLuhqNF6Mok-45" style="edgeStyle=orthogonalEdgeStyle;rounded=0;orthogonalLoop=1;jettySize=auto;html=1;exitX=0.5;exitY=1;exitDx=0;exitDy=0;entryX=0.5;entryY=0;entryDx=0;entryDy=0;" edge="1" parent="1" source="g-QfgfsSfjLuhqNF6Mok-46" target="g-QfgfsSfjLuhqNF6Mok-48">
          <mxGeometry relative="1" as="geometry" />
        </mxCell>
        <mxCell id="g-QfgfsSfjLuhqNF6Mok-46" value="&lt;font style=&quot;font-size: 10px;&quot;&gt;MyHandler *myHandler = &lt;br&gt;new MyHandler(ostream, istream)&lt;/font&gt;" style="whiteSpace=wrap;html=1;" vertex="1" parent="1">
          <mxGeometry x="619.5" y="222" width="154" height="32" as="geometry" />
        </mxCell>
        <mxCell id="g-QfgfsSfjLuhqNF6Mok-47" style="edgeStyle=orthogonalEdgeStyle;rounded=0;orthogonalLoop=1;jettySize=auto;html=1;entryX=0.5;entryY=0;entryDx=0;entryDy=0;" edge="1" parent="1" source="g-QfgfsSfjLuhqNF6Mok-48" target="g-QfgfsSfjLuhqNF6Mok-50">
          <mxGeometry relative="1" as="geometry" />
        </mxCell>
        <mxCell id="g-QfgfsSfjLuhqNF6Mok-48" value="&lt;font style=&quot;font-size: 10px;&quot;&gt;myHandler-&amp;gt;start()&lt;/font&gt;" style="whiteSpace=wrap;html=1;" vertex="1" parent="1">
          <mxGeometry x="619.5" y="268" width="154" height="20" as="geometry" />
        </mxCell>
        <mxCell id="g-QfgfsSfjLuhqNF6Mok-49" style="edgeStyle=orthogonalEdgeStyle;rounded=0;orthogonalLoop=1;jettySize=auto;html=1;entryX=0.5;entryY=0;entryDx=0;entryDy=0;" edge="1" parent="1" source="g-QfgfsSfjLuhqNF6Mok-50" target="g-QfgfsSfjLuhqNF6Mok-51">
          <mxGeometry relative="1" as="geometry" />
        </mxCell>
        <mxCell id="g-QfgfsSfjLuhqNF6Mok-50" value="&lt;font style=&quot;font-size: 10px;&quot;&gt;return 0&lt;/font&gt;" style="whiteSpace=wrap;html=1;" vertex="1" parent="1">
          <mxGeometry x="619.5" y="302" width="154" height="20" as="geometry" />
        </mxCell>
        <mxCell id="g-QfgfsSfjLuhqNF6Mok-51" value="&lt;font style=&quot;font-size: 10px;&quot;&gt;Конец&lt;/font&gt;" style="ellipse;whiteSpace=wrap;html=1;" vertex="1" parent="1">
          <mxGeometry x="659" y="337" width="75" height="30" as="geometry" />
        </mxCell>
      </root>
    </mxGraphModel>
  </diagram>
</mxfile>
